<svg width="172" height="48" viewBox="0 0 172 48" fill="none" xmlns="http://www.w3.org/2000/svg">
<path d="M41.7106 12.0933C41.7106 12.0187 41.7106 12.0187 41.7106 11.944C41.7106 11.8694 41.6358 11.8694 41.6358 11.8694L21.0048 0.0746501C20.93 0 20.93 0 20.8553 0C20.7805 0 20.7805 0 20.7058 0L10.3903 5.97201L0.149518 11.8694L0.0747681 11.944C0.0747681 12.0187 0.0747681 12.0187 0.0747681 12.0933V35.832C0.0747681 35.9067 0.0747681 35.9067 0.0747681 35.9813C0.0747681 36.056 0.149518 36.056 0.149518 36.056L20.631 47.8507C20.7058 47.8507 20.7058 47.9253 20.7805 47.9253C20.8553 47.9253 20.8553 47.9254 20.93 47.8507L41.4116 36.056L41.4863 35.9813C41.4863 35.9067 41.4863 35.9067 41.4863 35.832V23.9627L41.7106 12.0933C41.7106 12.168 41.7106 12.168 41.7106 12.0933ZM41.1126 23.2162L34.6093 16.423L41.1126 12.6905V23.2162ZM30.9466 41.4308L21.6775 39.1913L33.6376 32.3235L30.9466 41.4308ZM8.07303 32.2488L20.033 39.1166L10.764 41.3561L8.07303 32.2488ZM10.764 6.56921L20.033 8.80871L8.07303 15.6765L10.764 6.56921ZM33.6376 15.6765L21.6775 8.80871L30.9466 6.56921L33.6376 15.6765ZM20.8553 38.9673L7.84878 31.5023V16.5723L20.8553 9.10731L33.8618 16.5723V31.5023L20.8553 38.9673ZM7.25078 30.9051L0.672769 23.9627L7.25078 17.0202V30.9051ZM34.3851 17.0202L40.9631 23.9627L34.3851 30.9051V17.0202ZM34.3103 15.9005L31.6193 6.86781L40.8136 12.168L34.3103 15.9005ZM21.1543 8.28616V0.821151L30.3486 6.12131L21.1543 8.28616ZM20.5563 8.28616L11.362 6.12131L20.5563 0.821151V8.28616ZM7.40028 15.9005L0.897019 12.168L10.0913 6.86781L7.40028 15.9005ZM7.10128 16.423L0.598019 23.2908V12.6905L7.10128 16.423ZM0.598019 24.7092L7.10128 31.577L0.598019 35.3095V24.7092ZM7.40028 32.0995L10.0913 41.1322L0.897019 35.832L7.40028 32.0995ZM20.5563 39.7138V47.1788L11.362 41.8787L20.5563 39.7138ZM21.1543 39.7138L30.3486 41.8787L21.1543 47.1788V39.7138ZM34.3103 32.0995L40.8136 35.832L31.6193 41.1322L34.3103 32.0995ZM34.6093 31.577L41.1126 24.7092V35.3095L34.6093 31.577Z" fill="#C28B71"/>
<path d="M29.0778 30.3826C29.1525 30.5319 29.3768 30.6065 29.4515 30.4572C29.601 30.3826 29.6758 30.1586 29.5263 30.084L21.0048 15.3033C21.0048 15.2286 20.93 15.2286 20.93 15.2286C20.7805 15.154 20.631 15.2286 20.5563 15.3033L12.0348 30.084C11.96 30.2333 12.0348 30.3826 12.1095 30.4572C12.259 30.5319 12.4085 30.4572 12.4833 30.3826L15.4733 25.2317H26.013L29.0778 30.3826ZM15.9218 24.6345L16.8188 22.9922L20.7805 16.0498L24.7423 22.9922L25.6393 24.6345H15.9218Z" fill="#C28B71"/>
<path d="M133.055 17.9907H124.235C124.085 17.9907 124.01 18.0653 124.01 18.2146V18.8865C124.01 19.0358 124.085 19.1104 124.235 19.1104H128.047V29.86C128.047 30.0093 128.122 30.084 128.271 30.084H129.093C129.243 30.084 129.318 30.0093 129.318 29.86V19.0358H133.13C133.279 19.0358 133.354 18.9611 133.354 18.8118V18.14C133.279 18.0653 133.205 17.9907 133.055 17.9907Z" fill="#C28B71"/>
<path d="M143.894 19.7823C143.445 18.14 143.221 17.916 141.801 17.916C140.455 17.916 140.231 18.14 139.783 19.7823L136.942 29.7854C136.942 29.9347 136.942 30.0093 137.092 30.0093H137.989C138.138 30.0093 138.138 29.9347 138.213 29.7854L139.259 26.0529H144.342L145.389 29.7854C145.389 29.9347 145.464 30.0093 145.538 30.0093H146.435C146.585 30.0093 146.66 29.9347 146.585 29.7854L143.894 19.7823ZM139.558 25.0078L140.979 20.0809C141.203 19.1851 141.278 19.0358 141.801 19.0358C142.399 19.0358 142.474 19.1851 142.698 20.0809L144.043 25.0078H139.558Z" fill="#C28B71"/>
<path d="M159.442 17.9907H150.621C150.472 17.9907 150.397 18.0653 150.397 18.2146V18.8865C150.397 19.0358 150.472 19.1104 150.621 19.1104H154.434V29.86C154.434 30.0093 154.508 30.084 154.658 30.084H155.48C155.63 30.084 155.704 30.0093 155.704 29.86V19.0358H159.517C159.666 19.0358 159.741 18.9611 159.741 18.8118V18.14C159.591 18.0653 159.517 17.9907 159.442 17.9907Z" fill="#C28B71"/>
<path d="M171.776 19.0358C171.925 19.0358 172 18.9611 172 18.8118V18.14C172 17.9907 171.925 17.916 171.776 17.916H164.525C164.375 17.916 164.301 17.9907 164.301 18.14V29.7107C164.301 29.86 164.375 29.9347 164.525 29.9347H171.776C171.925 29.9347 172 29.86 172 29.7107V29.1135C172 28.9642 171.925 28.8896 171.776 28.8896H165.497V24.7092H171.178C171.327 24.7092 171.402 24.6345 171.402 24.4852V23.888C171.402 23.7387 171.327 23.6641 171.178 23.6641H165.497V19.0358H171.776Z" fill="#C28B71"/>
<path d="M72.2086 25.381C74.2268 25.1571 74.8996 24.3359 74.8996 21.7232C74.8996 18.3639 73.7036 17.916 70.0408 17.916C69.2933 17.916 68.0226 17.916 66.9761 17.9907C66.8266 17.9907 66.7518 18.0653 66.7518 18.2146V29.86C66.7518 30.0093 66.8266 30.084 66.9761 30.084H67.7983C67.9478 30.084 68.0226 30.0093 68.0226 29.86V25.5303H70.8631L73.5541 29.7854C73.7036 30.0093 73.7783 30.084 74.0773 30.084H74.7501C74.9743 30.084 75.0491 29.9347 74.8996 29.7854L72.2086 25.381ZM69.9661 24.3359H68.0226V18.9611H69.9661C72.8813 18.9611 73.7036 19.1851 73.7036 21.7232C73.7036 24.2613 72.8813 24.3359 69.9661 24.3359Z" fill="#C28B71"/>
<path d="M59.1273 19.7823C58.6788 18.14 58.4546 17.916 57.0343 17.916C55.6888 17.916 55.4646 18.14 55.0161 19.7823L52.1756 29.7854C52.1756 29.9347 52.1756 30.0093 52.3251 30.0093H53.2221C53.3716 30.0093 53.3716 29.9347 53.4463 29.7854L54.4928 26.0529H59.5758L60.6223 29.7854C60.6223 29.9347 60.6971 30.0093 60.7718 30.0093H61.6688C61.8183 30.0093 61.8931 29.9347 61.8183 29.7854L59.1273 19.7823ZM54.7918 25.0078L56.2121 20.0809C56.4363 19.1851 56.5111 19.0358 57.0343 19.0358C57.6323 19.0358 57.7071 19.1851 57.9313 20.0809L59.2768 25.0078H54.7918Z" fill="#C28B71"/>
<path d="M88.0556 17.9907H79.2351C79.0856 17.9907 79.0109 18.0653 79.0109 18.2146V18.8865C79.0109 19.0358 79.0856 19.1104 79.2351 19.1104H83.0474V29.86C83.0474 30.0093 83.1221 30.084 83.2716 30.084H84.0939C84.2434 30.084 84.3181 30.0093 84.3181 29.86V19.0358H88.1304C88.2799 19.0358 88.3546 18.9611 88.3546 18.8118V18.14C88.2051 18.0653 88.1304 17.9907 88.0556 17.9907Z" fill="#C28B71"/>
<path d="M107.192 17.9907H99.9409C99.7914 17.9907 99.7166 18.0653 99.7166 18.2146V29.7854C99.7166 29.9347 99.7914 30.0093 99.9409 30.0093H107.192C107.341 30.0093 107.416 29.9347 107.416 29.7854V29.1135C107.416 28.9642 107.341 28.8896 107.192 28.8896H100.913V24.7092H106.594C106.743 24.7092 106.818 24.6345 106.818 24.4852V23.888C106.818 23.7387 106.743 23.6641 106.594 23.6641H100.913V19.0358H107.192C107.341 19.0358 107.416 18.9611 107.416 18.8118V18.14C107.416 18.0653 107.341 17.9907 107.192 17.9907Z" fill="#C28B71"/>
<path d="M118.404 24.1866L114.741 22.619C113.62 22.1711 113.396 21.7232 113.396 20.8274V20.6034C113.396 19.4837 114.143 18.9611 115.788 18.9611H119.376C119.525 18.9611 119.525 18.8865 119.525 18.7372V18.2146C119.525 18.14 119.451 18.0653 119.376 18.0653C118.18 17.916 117.358 17.916 116.236 17.916C113.994 17.916 112.2 18.2893 112.2 20.6034V20.902C112.2 22.0218 112.424 22.9922 113.695 23.5148L117.657 25.1571C118.778 25.605 118.927 26.3515 118.927 27.098V27.4712C118.927 28.7403 117.956 29.1135 116.461 29.1135H112.2C112.05 29.1135 111.976 29.1882 111.976 29.2628V29.7854C111.976 29.9347 112.05 30.0093 112.125 30.0093C113.321 30.1586 114.891 30.1586 116.012 30.1586C118.105 30.1586 120.049 29.9347 120.049 27.4712V27.0233C120.123 25.9036 119.899 24.8585 118.404 24.1866Z" fill="#C28B71"/>
</svg>
